<svg xmlns="http://www.w3.org/2000/svg"
 version="1.1" xmlns:xlink="http://www.w3.org/1999/xlink" xmlns:svgjs="http://svgjs.com/svgjs" width="512" height="512" x="0" y="0" viewBox="0 0 48 48" style="enable-background:new 0 0 512 512" xml:space="preserve" fill-rule="evenodd" class=""><g><linearGradient id="a" x1="504" x2="552" y1="576" y2="624" gradientUnits="userSpaceOnUse"><stop offset="0" stop-color="#79c5d4"></stop><stop offset="1" stop-color="#276dd7"></stop></linearGradient><path fill="url(#a)" d="M527.5 578a2.515 2.515 0 0 0-2.5 2.5V597h-16.5a2.515 2.515 0 0 0-2.5 2.5v1c0 1.369 1.131 2.5 2.5 2.5H525v16.5c0 1.369 1.131 2.5 2.5 2.5h1c1.369 0 2.5-1.131 2.5-2.5V603h16.5c1.369 0 2.5-1.131 2.5-2.5v-1c0-1.369-1.131-2.5-2.5-2.5H531v-16.5c0-1.369-1.131-2.5-2.5-2.5z" transform="translate(-504 -576)" opacity="1" data-original="url(#a)" class=""></path></g></svg>